<?xml version="1.0" encoding="utf-8"?>
<svg xmlns="http://www.w3.org/2000/svg" viewBox="60.7086 91.7536 339.5539 251.0348" width="339.554px" height="251.035px" preserveAspectRatio="none"><defs><linearGradient gradientUnits="userSpaceOnUse" x1="352.975" y1="200.261" x2="352.975" y2="234.706" id="gradient-0" gradientTransform="matrix(1, 0, 0, 1, -0.000027, -0.000009)"><stop offset="0" style="stop-color: rgb(98.431% 98.431% 98.431% / 0)"/><stop offset="1" style="stop-color: rgb(55.84% 55.84% 55.84% / 0)"/></linearGradient></defs><g id="object-0" transform="matrix(1, 0, 0, 1, -19.279120066139676, -12.573379891317472)"><path style="paint-order: fill; stroke-width: 2; stroke: rgb(255, 0, 0); stroke-linecap: round; stroke-linejoin: round; fill: rgb(79, 36, 32);" d="M 89.205 104.377 L 80.445 196.371 C 77.153 237.046 92.26 266.673 105.705 286.354 C 131.012 324.791 165.493 336.093 193.239 345.908 C 220.986 355.722 264.331 360.85 306.111 346.339 C 348.729 333.921 384.223 301.281 393.683 286.023 C 409.743 263.97 421.983 233.292 419.126 196.308 L 410.092 104.358 L 89.205 104.377 Z"/><path style="stroke-linecap: round; paint-order: fill; stroke-width: 2px; fill: rgb(93, 119, 46); stroke: rgb(255, 255, 255);" d="M 108.047 104.344 L 100.312 189.381 C 97.403 226.98 110.745 254.366 122.62 272.558 C 144.97 308.088 175.423 318.535 199.928 327.608 C 224.433 336.68 262.714 341.42 299.613 328.006 C 337.251 316.528 368.6 286.356 376.954 272.253 C 391.138 251.867 401.948 223.509 399.425 189.323 L 391.446 104.327 L 108.047 104.344 Z"/><ellipse style="fill: rgba(216, 216, 216, 0); stroke: rgb(248, 250, 255);" cx="249.981" cy="259.428" rx="7.058" ry="6.597"/><ellipse style="fill: rgba(216, 216, 216, 0); stroke: rgb(248, 250, 255); stroke-width: 1;" cx="204.462" cy="245.275" rx="6.875" ry="6.597"/><ellipse style="fill: rgba(216, 216, 216, 0); stroke: rgb(248, 250, 255); stroke-width: 1;" cx="178.663" cy="209.671" rx="6.943" ry="6.196"/><ellipse style="fill: rgba(216, 216, 216, 0); stroke: rgb(248, 250, 255); stroke-width: 1;" cx="295.603" cy="245.326" rx="7.058" ry="6.597"/><ellipse style="fill: rgba(216, 216, 216, 0); stroke: rgb(248, 250, 255); stroke-width: 1; stroke-linecap: round; stroke-linejoin: round;" cx="321.247" cy="209.575" rx="7.058" ry="6.161"/><path style="stroke-linecap: round; stroke-linejoin: round; fill: rgba(251, 251, 251, 0); stroke: rgb(255, 255, 255);" d="M 237.502 276.873 L 237.355 305.291 C 237.348 307.112 238.474 307.87 239.646 307.917 L 260.097 308.042 C 261.527 307.917 262.806 306.833 262.762 305.418 L 262.554 276.721 C 262.548 275.281 262.318 273.806 259.953 273.741 L 240.229 273.597 C 238.548 273.647 237.553 274.629 237.502 276.873 Z"/><path style="stroke-linecap: round; stroke-linejoin: round; fill: rgba(251, 251, 251, 0); stroke: rgb(255, 255, 255); stroke-width: 1; transform-box: fill-box; transform-origin: 50% 50%;" d="M 134.399 202.097 L 134.252 230.515 C 134.245 232.336 135.371 233.094 136.543 233.141 L 156.994 233.266 C 158.424 233.141 159.703 232.057 159.659 230.642 L 159.451 201.945 C 159.445 200.505 159.215 199.03 156.85 198.965 L 137.126 198.821 C 135.445 198.871 134.45 199.853 134.399 202.097 Z" transform="matrix(0.247656, 0.968848, -0.968848, 0.247656, -0.000005, -0.000005)"/><path style="stroke-linecap: round; stroke-linejoin: round; fill: rgba(251, 251, 251, 0); stroke: rgb(255, 255, 255); stroke-width: 1; transform-box: fill-box; transform-origin: 50% 50%;" d="M 302.496 256.564 L 302.349 284.982 C 302.342 286.803 303.468 287.561 304.64 287.608 L 325.091 287.733 C 326.521 287.608 327.8 286.524 327.756 285.109 L 327.548 256.412 C 327.542 254.972 327.312 253.497 324.947 253.432 L 305.223 253.288 C 303.542 253.338 302.547 254.32 302.496 256.564 Z" transform="matrix(0.817992, -0.575229, 0.575229, 0.817992, -0.000004, 0.000004)"/><path style="stroke-linecap: round; stroke-linejoin: round; fill: rgba(251, 251, 251, 0); stroke: rgb(255, 255, 255); stroke-width: 1; transform-box: fill-box; transform-origin: 50% 50%;" d="M 170.88 256.008 L 170.733 284.426 C 170.726 286.247 171.852 287.005 173.024 287.052 L 193.475 287.177 C 194.905 287.052 196.184 285.968 196.14 284.553 L 195.932 255.856 C 195.926 254.416 195.696 252.941 193.331 252.876 L 173.607 252.732 C 171.926 252.782 170.931 253.764 170.88 256.008 Z" transform="matrix(0.815711, 0.57846, -0.57846, 0.815711, -0.000002, 0.000003)"/><path style="stroke-linecap: round; stroke: rgb(255, 255, 255); stroke-width: 1; fill: url(&quot;#gradient-0&quot;); stroke-linejoin: round; transform-box: fill-box; transform-origin: 50% 50%;" d="M 340.418 203.537 L 340.271 231.955 C 340.264 233.776 341.39 234.534 342.562 234.581 L 363.013 234.706 C 364.443 234.581 365.722 233.497 365.678 232.082 L 365.47 203.385 C 365.464 201.945 365.234 200.47 362.869 200.405 L 343.145 200.261 C 341.464 200.311 340.469 201.293 340.418 203.537 Z" transform="matrix(0.230442, -0.973086, 0.973086, 0.230442, 0.000002, 0.000015)"/><path style="stroke: rgb(0, 0, 0); stroke-linejoin: round; fill: rgb(74, 79, 94);" d="M 188.944 191.411 L 198.734 191.411 C 202.432 257.685 302.287 249.598 301.241 191.472 L 310.808 191.409 C 312.452 227.589 277.119 247.094 250.882 247.529 C 224.255 247.97 187.898 229.063 188.944 191.411 Z"/><path style="stroke: rgb(0, 0, 0); fill: rgba(79, 36, 32, 0);" d="M 349.216 111.873 L 325.522 145.324 L 349.652 159.523 C 349.652 159.523 373.607 125.898 373.607 125.811 C 373.607 125.724 349.129 111.699 349.216 111.873 Z"/></g></svg>